<svg width="19" height="32" viewBox="0 0 19 32" fill="none" xmlns="http://www.w3.org/2000/svg">
<path d="M12.3125 26.6875V24L8.3125 28L12.3125 32V29.3125H19V26.6875H12.3125ZM7 26.6875L0.3125 26.6875V29.3125L7 29.3125V26.6875ZM3 0C2.25 0 1.61458 0.260417 1.09375 0.78125C0.572917 1.30208 0.3125 1.9375 0.3125 2.6875L0.3125 21.3125C0.3125 22.0625 0.572917 22.6979 1.09375 23.2188C1.61458 23.7396 2.25 24 3 24L16.3125 24C17.0625 24 17.6979 23.7396 18.2188 23.2188C18.7396 22.6979 19 22.0625 19 21.3125L19 2.6875C19 1.9375 18.7396 1.30208 18.2188 0.78125C17.6979 0.260417 17.0625 0 16.3125 0L3 0ZM9.65625 8C8.92708 8 8.30208 7.73958 7.78125 7.21875C7.26042 6.69792 7 6.07292 7 5.34375C7 4.61458 7.26042 3.98958 7.78125 3.46875C8.30208 2.94792 8.92708 2.6875 9.65625 2.6875C10.3854 2.6875 11.0104 2.94792 11.5312 3.46875C12.0521 3.98958 12.3125 4.61458 12.3125 5.34375C12.3125 6.07292 12.0521 6.69792 11.5312 7.21875C11.0104 7.73958 10.3854 8 9.65625 8Z" fill="#FFBD59"/>
</svg>
