<svg width="12" height="16" viewBox="0 0 12 16" fill="none" xmlns="http://www.w3.org/2000/svg">
<path d="M7.5 1.5C7.5 1.10218 7.34196 0.720644 7.06066 0.43934C6.77936 0.158035 6.39782 0 6 0C5.60218 0 5.22064 0.158035 4.93934 0.43934C4.65804 0.720644 4.5 1.10218 4.5 1.5L7.5 1.5Z" fill="#FFBD59"/>
<path fill-rule="evenodd" clip-rule="evenodd" d="M0.567994 6.41504C0.624884 6.31735 0.7132 6.24182 0.818535 6.20078C0.92387 6.15974 1.04001 6.1556 1.14799 6.18904L4.83199 7.32304V5.33305C4.83195 5.23539 4.86051 5.13986 4.91414 5.05825C4.96778 4.97664 5.04413 4.91252 5.13379 4.87381C5.22344 4.8351 5.32247 4.82349 5.41865 4.84041C5.51482 4.85734 5.60394 4.90205 5.67499 4.96904L11.342 10.303C11.4243 10.3805 11.478 10.4835 11.4942 10.5953C11.5105 10.7071 11.4884 10.8211 11.4316 10.9188C11.3748 11.0164 11.2865 11.092 11.1813 11.1331C11.076 11.1741 10.96 11.1784 10.852 11.145L7.16699 10.01V12C7.16703 12.0977 7.13847 12.1932 7.08484 12.2748C7.03121 12.3564 6.95486 12.4206 6.8652 12.4593C6.77555 12.498 6.67652 12.5096 6.58034 12.4927C6.48416 12.4758 6.39505 12.431 6.32399 12.364L0.656994 7.03104C0.574555 6.95367 0.520775 6.85064 0.50443 6.73876C0.488084 6.62688 0.510138 6.51277 0.566993 6.41504H0.567994Z" fill="#FFBD59"/>
<path fill-rule="evenodd" clip-rule="evenodd" d="M2 9.668L2 14C2 14.5304 2.21071 15.0391 2.58579 15.4142C2.96086 15.7893 3.46957 16 4 16H8C8.53043 16 9.03914 15.7893 9.41421 15.4142C9.78929 15.0391 10 14.5304 10 14V11.928L9 11.621V14C9 14.2652 8.89464 14.5196 8.70711 14.7071C8.51957 14.8946 8.26522 15 8 15H4C3.73478 15 3.48043 14.8946 3.29289 14.7071C3.10536 14.5196 3 14.2652 3 14V10.609L2 9.668ZM4 11.55V14H8V12.687C7.89356 12.8934 7.74065 13.0723 7.55331 13.2095C7.36597 13.3468 7.14932 13.4386 6.92043 13.4779C6.69154 13.5172 6.45666 13.5027 6.23429 13.4358C6.01193 13.3688 5.80814 13.2511 5.639 13.092L4 11.55ZM9 10.574L10 10.882V9.04L9.776 8.83V8.829L9 8.099V9.47L9.09 9.555L9 9.527V10.574ZM8 9.22V10.267L7.167 10.01V12C7.16704 12.0977 7.13848 12.1932 7.08485 12.2748C7.03122 12.3564 6.95486 12.4205 6.86521 12.4592C6.77555 12.4979 6.67653 12.5096 6.58035 12.4926C6.48417 12.4757 6.39505 12.431 6.324 12.364L5.481 11.571L4 10.177V8.804L6.167 10.843V9.333C6.16698 9.25475 6.18533 9.17759 6.22057 9.10773C6.25581 9.03786 6.30696 8.97725 6.36989 8.93075C6.43283 8.88425 6.5058 8.85318 6.58293 8.84002C6.66006 8.82686 6.73921 8.832 6.814 8.855L8 9.22ZM8 8.53V7.156L6.518 5.762L5.676 4.969C5.60495 4.90201 5.51583 4.85729 5.41965 4.84037C5.32348 4.82344 5.22445 4.83505 5.13479 4.87376C5.04514 4.91248 4.96878 4.9766 4.91515 5.05821C4.86152 5.13982 4.83296 5.23535 4.833 5.333V7.323L4 7.067V8.113L4.54 8.279L5.186 8.478C5.26079 8.50101 5.33994 8.50614 5.41707 8.49298C5.4942 8.47982 5.56717 8.44875 5.63011 8.40225C5.69304 8.35575 5.74419 8.29514 5.77943 8.22527C5.81467 8.15541 5.83302 8.07825 5.833 8V6.49L8 8.53V8.53ZM3 7.805L3 6.76L2 6.452V8.294L3 9.236V7.862L2.91 7.777L3 7.805ZM2 5.405L3 5.713V4C3 3.73478 3.10536 3.48043 3.29289 3.29289C3.48043 3.10536 3.73478 3 4 3H8C8.26522 3 8.51957 3.10536 8.70711 3.29289C8.89464 3.48043 9 3.73478 9 4V6.724L10 7.666V4C10 3.46957 9.78929 2.96086 9.41421 2.58579C9.03914 2.21071 8.53043 2 8 2H4C3.46957 2 2.96086 2.21071 2.58579 2.58579C2.21071 2.96086 2 3.46957 2 4L2 5.405ZM8 5.783V4H6.02C6.14435 4.06403 6.25913 4.14515 6.361 4.241L8 5.783ZM4.646 4H4V4.646C4.14293 4.36873 4.36873 4.14293 4.646 4Z" fill="#FFBD59"/>
</svg>
