<svg width="94" height="139" viewBox="0 0 94 139" fill="none" xmlns="http://www.w3.org/2000/svg">
<rect x="0.5" y="0.5" width="93" height="119" rx="46.5" fill="#000717" stroke="#FFBD59"/>
<path d="M67.5 119.5C67.5 129.97 58.5696 138.5 47.5 138.5C36.4304 138.5 27.5 129.97 27.5 119.5C27.5 109.03 36.4304 100.5 47.5 100.5C58.5696 100.5 67.5 109.03 67.5 119.5Z" fill="#000717" stroke="#FFBD59"/>
<path d="M47.5 105C39.6286 105 33 111.4 33 119C33 126.6 39.6286 133 47.5 133C55.3714 133 62 126.6 62 119C62 111.4 55.3714 105 47.5 105ZM55.7857 120H48.5357V127H46.4643V120H39.2143V118H46.4643V111H48.5357V118H55.7857V120Z" fill="#FFBD59"/>
<path fill-rule="evenodd" clip-rule="evenodd" d="M34 27.3246C34 25.9124 34.588 24.5581 35.6347 23.5595C36.6814 22.561 38.101 22 39.5813 22H56.325C57.8052 22 59.2249 22.561 60.2715 23.5595C61.3182 24.5581 61.9062 25.9124 61.9062 27.3246V59.2722C61.9062 60.6843 61.3182 62.0387 60.2715 63.0372C59.2249 64.0358 57.8052 64.5968 56.325 64.5968H39.5813C38.101 64.5968 36.6814 64.0358 35.6347 63.0372C34.588 62.0387 34 60.6843 34 59.2722V27.3246ZM50.7438 56.6099C50.7438 57.316 50.4497 57.9931 49.9264 58.4924C49.4031 58.9917 48.6932 59.2722 47.9531 59.2722C47.213 59.2722 46.5032 58.9917 45.9799 58.4924C45.4565 57.9931 45.1625 57.316 45.1625 56.6099C45.1625 55.9038 45.4565 55.2266 45.9799 54.7274C46.5032 54.2281 47.213 53.9476 47.9531 53.9476C48.6932 53.9476 49.4031 54.2281 49.9264 54.7274C50.4497 55.2266 50.7438 55.9038 50.7438 56.6099Z" fill="#FFBD59"/>
<path d="M18.1875 84V82.8867L18.791 82.7988L21.4219 75.4688H23.4082L26.0332 82.7988L26.6367 82.8867V84H23.5898V82.8867L24.1641 82.7812L23.8477 81.7324H20.9766L20.666 82.7812L21.2344 82.8867V84H18.1875ZM21.3926 80.3789H23.4199L22.5117 77.625L22.418 77.3496H22.3828L22.2891 77.6543L21.3926 80.3789ZM29.5605 84.123C29.0605 84.123 28.6309 83.9941 28.2715 83.7363C27.9121 83.4746 27.6367 83.1074 27.4453 82.6348C27.2539 82.1621 27.1582 81.6113 27.1582 80.9824V80.8594C27.1582 80.1953 27.2539 79.6152 27.4453 79.1191C27.6406 78.623 27.916 78.2363 28.2715 77.959C28.6309 77.6816 29.0547 77.543 29.543 77.543C29.8867 77.543 30.1836 77.6133 30.4336 77.7539C30.6875 77.8906 30.9082 78.0859 31.0957 78.3398V76.1602L30.1934 75.9785V74.8594H31.0957H32.9824V82.7051L33.7617 82.8867V84H31.3477L31.207 83.2207C31.0117 83.5176 30.7793 83.7422 30.5098 83.8945C30.2441 84.0469 29.9277 84.123 29.5605 84.123ZM30.1348 82.6699C30.3379 82.6699 30.5215 82.6289 30.6855 82.5469C30.8535 82.4609 30.9902 82.3379 31.0957 82.1777V79.5586C30.9902 79.3789 30.8555 79.2402 30.6914 79.1426C30.5312 79.0449 30.3496 78.9961 30.1465 78.9961C29.8848 78.9961 29.6719 79.0742 29.5078 79.2305C29.3477 79.3867 29.2305 79.6055 29.1562 79.8867C29.082 80.1641 29.0449 80.4883 29.0449 80.8594V80.9824C29.0449 81.5137 29.127 81.9277 29.291 82.2246C29.4551 82.5215 29.7363 82.6699 30.1348 82.6699ZM36.6504 84.123C36.1504 84.123 35.7207 83.9941 35.3613 83.7363C35.002 83.4746 34.7266 83.1074 34.5352 82.6348C34.3438 82.1621 34.248 81.6113 34.248 80.9824V80.8594C34.248 80.1953 34.3438 79.6152 34.5352 79.1191C34.7305 78.623 35.0059 78.2363 35.3613 77.959C35.7207 77.6816 36.1445 77.543 36.6328 77.543C36.9766 77.543 37.2734 77.6133 37.5234 77.7539C37.7773 77.8906 37.998 78.0859 38.1855 78.3398V76.1602L37.2832 75.9785V74.8594H38.1855H40.0723V82.7051L40.8516 82.8867V84H38.4375L38.2969 83.2207C38.1016 83.5176 37.8691 83.7422 37.5996 83.8945C37.334 84.0469 37.0176 84.123 36.6504 84.123ZM37.2246 82.6699C37.4277 82.6699 37.6113 82.6289 37.7754 82.5469C37.9434 82.4609 38.0801 82.3379 38.1855 82.1777V79.5586C38.0801 79.3789 37.9453 79.2402 37.7812 79.1426C37.6211 79.0449 37.4395 78.9961 37.2363 78.9961C36.9746 78.9961 36.7617 79.0742 36.5977 79.2305C36.4375 79.3867 36.3203 79.6055 36.2461 79.8867C36.1719 80.1641 36.1348 80.4883 36.1348 80.8594V80.9824C36.1348 81.5137 36.2168 81.9277 36.3809 82.2246C36.5449 82.5215 36.8262 82.6699 37.2246 82.6699ZM44.1797 84V82.8867L45.0762 82.7051V76.7695L44.1797 76.5879V75.4688H45.0762H48.2812C48.9492 75.4688 49.5254 75.5859 50.0098 75.8203C50.498 76.0547 50.873 76.3789 51.1348 76.793C51.4004 77.207 51.5332 77.6914 51.5332 78.2461C51.5332 78.8008 51.4004 79.2852 51.1348 79.6992C50.873 80.1133 50.498 80.4355 50.0098 80.666C49.5254 80.8965 48.9492 81.0117 48.2812 81.0117H46.9629V82.7051L47.8594 82.8867V84H44.1797ZM46.9629 79.5645H48.2812C48.7305 79.5645 49.0703 79.4434 49.3008 79.2012C49.5312 78.9551 49.6465 78.6406 49.6465 78.2578C49.6465 77.8672 49.5312 77.5449 49.3008 77.291C49.0703 77.0371 48.7305 76.9102 48.2812 76.9102H46.9629V79.5645ZM51.9902 84V82.8867L52.7695 82.7051V76.1602L51.8672 75.9785V74.8594H54.6445V78.457C54.8398 78.168 55.0801 77.9434 55.3652 77.7832C55.6543 77.623 55.9863 77.543 56.3613 77.543C56.9863 77.543 57.4844 77.7578 57.8555 78.1875C58.2266 78.6172 58.4121 79.2812 58.4121 80.1797V82.7051L59.1914 82.8867V84H55.8574V82.8867L56.5254 82.7051V80.168C56.5254 79.7344 56.4473 79.4316 56.291 79.2598C56.1387 79.084 55.9141 78.9961 55.6172 78.9961C55.4102 78.9961 55.2227 79.0371 55.0547 79.1191C54.8906 79.1973 54.7539 79.3164 54.6445 79.4766V82.7051L55.3184 82.8867V84H51.9902ZM62.6836 84.123C62.043 84.123 61.4941 83.9883 61.0371 83.7188C60.584 83.4453 60.2363 83.0664 59.9941 82.582C59.752 82.0938 59.6309 81.5293 59.6309 80.8887V80.7715C59.6309 80.1387 59.752 79.5801 59.9941 79.0957C60.2363 78.6113 60.584 78.2324 61.0371 77.959C61.4902 77.6816 62.0352 77.543 62.6719 77.543C63.3125 77.543 63.8574 77.6797 64.3066 77.9531C64.7598 78.2266 65.1074 78.6055 65.3496 79.0898C65.5918 79.5742 65.7129 80.1348 65.7129 80.7715V80.8887C65.7129 81.5254 65.5918 82.0879 65.3496 82.5762C65.1074 83.0605 64.7598 83.4395 64.3066 83.7129C63.8574 83.9863 63.3164 84.123 62.6836 84.123ZM62.6836 82.6875C62.957 82.6875 63.1777 82.6133 63.3457 82.4648C63.5137 82.3164 63.6367 82.1074 63.7148 81.8379C63.7969 81.5684 63.8379 81.252 63.8379 80.8887V80.7715C63.8379 80.416 63.7969 80.1055 63.7148 79.8398C63.6367 79.5703 63.5117 79.3613 63.3398 79.2129C63.1719 79.0605 62.9492 78.9844 62.6719 78.9844C62.3984 78.9844 62.1758 79.0605 62.0039 79.2129C61.8359 79.3613 61.7129 79.5703 61.6348 79.8398C61.5566 80.1055 61.5176 80.416 61.5176 80.7715V80.8887C61.5176 81.2559 61.5566 81.5742 61.6348 81.8438C61.7129 82.1133 61.8359 82.3223 62.0039 82.4707C62.1758 82.6152 62.4023 82.6875 62.6836 82.6875ZM66.3457 84V82.8867L67.125 82.7051V78.9609L66.2285 78.7793V77.6602H68.8945L68.9648 78.5566C69.1758 78.2363 69.4355 77.9883 69.7441 77.8125C70.0566 77.6328 70.4082 77.543 70.7988 77.543C71.4121 77.543 71.8926 77.7441 72.2402 78.1465C72.5918 78.5488 72.7676 79.1836 72.7676 80.0508V82.7051L73.5469 82.8867V84H70.2129V82.8867L70.8809 82.7051V80.0508C70.8809 79.668 70.8027 79.3965 70.6465 79.2363C70.4941 79.0762 70.2734 78.9961 69.9844 78.9961C69.7656 78.9961 69.5762 79.0391 69.416 79.125C69.2559 79.2109 69.1191 79.3359 69.0059 79.5V82.7051L69.6152 82.8867V84H66.3457ZM77.0508 84.123C76.4336 84.123 75.8965 83.9902 75.4395 83.7246C74.9824 83.4551 74.627 83.0879 74.373 82.623C74.123 82.1543 73.998 81.623 73.998 81.0293V80.8066C73.998 80.1699 74.1133 79.6055 74.3438 79.1133C74.5742 78.6211 74.9062 78.2363 75.3398 77.959C75.7734 77.6777 76.293 77.5391 76.8984 77.543C77.4727 77.543 77.957 77.6543 78.3516 77.877C78.7461 78.0996 79.0449 78.4258 79.248 78.8555C79.4551 79.2812 79.5586 79.8008 79.5586 80.4141V81.4102H75.9492L75.9434 81.4512C75.9707 81.6895 76.0391 81.9023 76.1484 82.0898C76.2578 82.2734 76.4102 82.4199 76.6055 82.5293C76.8047 82.6348 77.0469 82.6875 77.332 82.6875C77.6211 82.6875 77.8965 82.6523 78.1582 82.582C78.4238 82.5117 78.6934 82.4043 78.9668 82.2598L79.4297 83.4082C79.1562 83.6113 78.8184 83.7812 78.416 83.918C78.0137 84.0547 77.5586 84.123 77.0508 84.123ZM75.9609 80.209H77.8242V80.0566C77.8242 79.8184 77.7949 79.6152 77.7363 79.4473C77.6777 79.2754 77.584 79.1445 77.4551 79.0547C77.3262 78.9648 77.1543 78.9199 76.9395 78.9199C76.7207 78.9199 76.541 78.9746 76.4004 79.084C76.2637 79.1934 76.1582 79.3438 76.084 79.5352C76.0137 79.7227 75.9648 79.9375 75.9375 80.1797L75.9609 80.209Z" fill="white"/>
</svg>
