<svg width="38" height="40" viewBox="0 0 38 40" fill="none" xmlns="http://www.w3.org/2000/svg">
<path fill-rule="evenodd" clip-rule="evenodd" d="M13.0625 1.25C13.0625 0.918479 12.9374 0.600537 12.7147 0.366117C12.492 0.131696 12.1899 0 11.875 0C11.5601 0 11.258 0.131696 11.0353 0.366117C10.8126 0.600537 10.6875 0.918479 10.6875 1.25V5C9.11278 5 7.60255 5.65848 6.48905 6.83058C5.37556 8.00268 4.75 9.5924 4.75 11.25H1.1875C0.872555 11.25 0.57051 11.3817 0.347811 11.6161C0.125111 11.8505 0 12.1685 0 12.5C0 12.8315 0.125111 13.1495 0.347811 13.3839C0.57051 13.6183 0.872555 13.75 1.1875 13.75H4.75V16.25H1.1875C0.872555 16.25 0.57051 16.3817 0.347811 16.6161C0.125111 16.8505 0 17.1685 0 17.5C0 17.8315 0.125111 18.1495 0.347811 18.3839C0.57051 18.6183 0.872555 18.75 1.1875 18.75H4.75V21.25H1.1875C0.872555 21.25 0.57051 21.3817 0.347811 21.6161C0.125111 21.8505 0 22.1685 0 22.5C0 22.8315 0.125111 23.1495 0.347811 23.3839C0.57051 23.6183 0.872555 23.75 1.1875 23.75H4.75V26.25H1.1875C0.872555 26.25 0.57051 26.3817 0.347811 26.6161C0.125111 26.8505 0 27.1685 0 27.5C0 27.8315 0.125111 28.1495 0.347811 28.3839C0.57051 28.6183 0.872555 28.75 1.1875 28.75H4.75C4.75 30.4076 5.37556 31.9973 6.48905 33.1694C7.60255 34.3415 9.11278 35 10.6875 35V38.75C10.6875 39.0815 10.8126 39.3995 11.0353 39.6339C11.258 39.8683 11.5601 40 11.875 40C12.1899 40 12.492 39.8683 12.7147 39.6339C12.9374 39.3995 13.0625 39.0815 13.0625 38.75V35H15.4375V38.75C15.4375 39.0815 15.5626 39.3995 15.7853 39.6339C16.008 39.8683 16.3101 40 16.625 40C16.9399 40 17.242 39.8683 17.4647 39.6339C17.6874 39.3995 17.8125 39.0815 17.8125 38.75V35H20.1875V38.75C20.1875 39.0815 20.3126 39.3995 20.5353 39.6339C20.758 39.8683 21.0601 40 21.375 40C21.6899 40 21.992 39.8683 22.2147 39.6339C22.4374 39.3995 22.5625 39.0815 22.5625 38.75V35H24.9375V38.75C24.9375 39.0815 25.0626 39.3995 25.2853 39.6339C25.508 39.8683 25.8101 40 26.125 40C26.4399 40 26.742 39.8683 26.9647 39.6339C27.1874 39.3995 27.3125 39.0815 27.3125 38.75V35C28.8872 35 30.3974 34.3415 31.5109 33.1694C32.6244 31.9973 33.25 30.4076 33.25 28.75H36.8125C37.1274 28.75 37.4295 28.6183 37.6522 28.3839C37.8749 28.1495 38 27.8315 38 27.5C38 27.1685 37.8749 26.8505 37.6522 26.6161C37.4295 26.3817 37.1274 26.25 36.8125 26.25H33.25V23.75H36.8125C37.1274 23.75 37.4295 23.6183 37.6522 23.3839C37.8749 23.1495 38 22.8315 38 22.5C38 22.1685 37.8749 21.8505 37.6522 21.6161C37.4295 21.3817 37.1274 21.25 36.8125 21.25H33.25V18.75H36.8125C37.1274 18.75 37.4295 18.6183 37.6522 18.3839C37.8749 18.1495 38 17.8315 38 17.5C38 17.1685 37.8749 16.8505 37.6522 16.6161C37.4295 16.3817 37.1274 16.25 36.8125 16.25H33.25V13.75H36.8125C37.1274 13.75 37.4295 13.6183 37.6522 13.3839C37.8749 13.1495 38 12.8315 38 12.5C38 12.1685 37.8749 11.8505 37.6522 11.6161C37.4295 11.3817 37.1274 11.25 36.8125 11.25H33.25C33.25 9.5924 32.6244 8.00268 31.5109 6.83058C30.3974 5.65848 28.8872 5 27.3125 5V1.25C27.3125 0.918479 27.1874 0.600537 26.9647 0.366117C26.742 0.131696 26.4399 0 26.125 0C25.8101 0 25.508 0.131696 25.2853 0.366117C25.0626 0.600537 24.9375 0.918479 24.9375 1.25V5H22.5625V1.25C22.5625 0.918479 22.4374 0.600537 22.2147 0.366117C21.992 0.131696 21.6899 0 21.375 0C21.0601 0 20.758 0.131696 20.5353 0.366117C20.3126 0.600537 20.1875 0.918479 20.1875 1.25V5H17.8125V1.25C17.8125 0.918479 17.6874 0.600537 17.4647 0.366117C17.242 0.131696 16.9399 0 16.625 0C16.3101 0 16.008 0.131696 15.7853 0.366117C15.5626 0.600537 15.4375 0.918479 15.4375 1.25V5H13.0625V1.25ZM15.4375 12.5C14.4927 12.5 13.5865 12.8951 12.9184 13.5983C12.2503 14.3016 11.875 15.2554 11.875 16.25V23.75C11.875 24.7446 12.2503 25.6984 12.9184 26.4017C13.5865 27.1049 14.4927 27.5 15.4375 27.5H22.5625C23.5073 27.5 24.4135 27.1049 25.0816 26.4017C25.7497 25.6984 26.125 24.7446 26.125 23.75V16.25C26.125 15.2554 25.7497 14.3016 25.0816 13.5983C24.4135 12.8951 23.5073 12.5 22.5625 12.5H15.4375ZM15.4375 15C15.1226 15 14.8205 15.1317 14.5978 15.3661C14.3751 15.6005 14.25 15.9185 14.25 16.25V23.75C14.25 24.0815 14.3751 24.3995 14.5978 24.6339C14.8205 24.8683 15.1226 25 15.4375 25H22.5625C22.8774 25 23.1795 24.8683 23.4022 24.6339C23.6249 24.3995 23.75 24.0815 23.75 23.75V16.25C23.75 15.9185 23.6249 15.6005 23.4022 15.3661C23.1795 15.1317 22.8774 15 22.5625 15H15.4375Z" fill="#FFBD59"/>
</svg>
