<svg width="24" height="24" viewBox="0 0 24 24" fill="none" xmlns="http://www.w3.org/2000/svg">
<path d="M21.14 13.81C21.44 13.98 21.84 13.81 21.88 13.46C22.25 10.84 21.6 8.16003 20.02 6.02003C19.87 5.83003 19.59 5.77003 19.37 5.90003L14.15 8.91003C13.82 9.10003 13.82 9.58003 14.15 9.78003L21.14 13.81V13.81ZM15.67 21.3C18.14 20.32 20.13 18.38 21.17 15.95C21.27 15.72 21.17 15.45 20.95 15.32L15.74 12.31C15.42 12.12 15 12.36 15 12.75V20.83C15 21.18 15.35 21.43 15.67 21.3V21.3ZM14 21.37V15.17C14 14.79 13.58 14.54 13.25 14.74L5.86 19C5.56 19.17 5.51 19.6 5.78 19.82C7.96 21.56 10.81 22.3 13.57 21.87C13.6903 21.8535 13.8004 21.7935 13.8796 21.7014C13.9588 21.6093 14.0016 21.4915 14 21.37ZM18.21 4.18003C17.1219 3.32166 15.8687 2.69664 14.5284 2.34394C13.1882 1.99124 11.7896 1.91842 10.42 2.13003C10.18 2.16003 10 2.38003 10 2.63003V8.83003C10 9.21003 10.42 9.46003 10.75 9.26003L18.13 5.00003C18.43 4.82003 18.48 4.39003 18.21 4.18003ZM8.33 2.70003C5.86 3.68003 3.87 5.62003 2.83 8.05003C2.73 8.28003 2.83 8.55003 3.05 8.68003L8.26 11.69C8.33588 11.7332 8.4217 11.7558 8.50898 11.7556C8.59627 11.7554 8.682 11.7325 8.75772 11.6891C8.83345 11.6457 8.89654 11.5833 8.94078 11.508C8.98502 11.4328 9.00888 11.3473 9.01 11.26V3.17003C9 2.82003 8.65 2.57003 8.33 2.70003V2.70003ZM2.11 10.53C1.74 13.15 2.39 15.83 3.97 17.97C4.12 18.17 4.41 18.23 4.63 18.1L9.85 15.09C9.92543 15.0452 9.98791 14.9815 10.0313 14.9053C10.0747 14.829 10.0975 14.7428 10.0975 14.655C10.0975 14.5673 10.0747 14.481 10.0313 14.4048C9.98791 14.3285 9.92543 14.2649 9.85 14.22L2.86 10.18C2.56 10.01 2.16 10.19 2.11 10.53V10.53Z" fill="#FFBD59"/>
</svg>
