<svg 
          width="26.999719619750977" 
          height="27" fill="none" 
          xmlns="http://www.w3.org/2000/svg">
          <path d="M 13.50112473968042 0 C 9.834749571743322 0 9.374625722559903 0.016031508799642324 7.934625716599043 0.08156275749206543 C 6.497438140975253 0.14737525675445795 5.516437736259434 0.37490636855363846 4.658062700645422 0.7087501287460327 C 3.7701564088846724 1.0535626150667667 3.016968829386768 1.5148126110434532 2.2665938143363884 2.2654688358306885 C 1.5156562729854586 3.0158438310027122 1.054406030096398 3.7690310552716255 0.7084685155676702 4.65665602684021 C 0.3737809906081325 5.515312269330025 0.14596863058585646 6.4965940117836 0.08128112769873862 7.933218955993652 C 0.016874875389040853 9.373218923807144 0 9.833624929189682 0 13.5 C 0 17.166375070810318 0.016312759801756796 17.62509450316429 0.08156275965276312 19.065094470977783 C 0.1476565112360297 20.50228200852871 0.37518764163564405 21.48328024148941 0.7087501475216946 22.341655254364014 C 1.0538439061272102 23.229561522603035 1.5150937466849084 23.982750691473484 2.2657499913579495 24.733125686645508 C 3.0158437767856676 25.48406320810318 3.769031289228345 25.94643845781684 4.656375054688544 26.291250944137573 C 5.51531254954788 26.625094704329967 6.496593915665451 26.852624743245542 7.9335002616665795 26.918437242507935 C 9.37350026762744 26.983968491200358 9.833344362403192 27 13.499438166607176 27 C 17.166094430056482 27 17.6248138745625 26.983968491200358 19.06481388052336 26.918437242507935 C 20.502001456147152 26.852624743245542 21.484125974690887 26.625094704329967 22.343063469550223 26.291250944137573 C 23.230688464633083 25.94643845781684 23.98275146091648 25.48406320810318 24.732845246344198 24.733125686645508 C 25.483782787695127 23.982750691473484 25.945030884816916 23.22956346720457 26.290968399345644 22.341938495635986 C 26.62284339338527 21.48328225314617 26.850656859818795 20.502000510692596 26.91815686009821 19.065375566482544 C 26.98284436298533 17.625375598669052 26.999719619750973 17.166375070810318 26.999719619750973 13.5 C 26.999719619750973 9.833624929189682 26.98284436298533 9.373500019311905 26.91815686009821 7.933500051498413 C 26.850656859818795 6.496312513947487 26.62284339338527 5.515312135219574 26.290968399345644 4.656937122344971 C 25.945030884816916 3.7690308541059494 25.483782787695127 3.0158438310027122 24.732845246344198 2.2654688358306885 C 23.98190770499327 1.5145313143730164 23.23097023069756 1.0532813854515553 22.342220183013602 0.7087501287460327 C 21.48159517630784 0.37490636855363846 20.50003164179443 0.14737525675445795 19.062844066170637 0.08156275749206543 C 17.622844060209776 0.016031508799642324 17.164406247657787 0 13.496906161230042 0 L 13.50112473968042 0 Z M 12.290063349146074 2.4328123927116394 C 12.649500857863352 2.432249892684922 13.050562228280908 2.4328123927116394 13.50112473968042 2.4328123927116394 C 17.105624830876522 2.4328123927116394 17.532844680098073 2.445750166196376 18.956250931327812 2.5104376673698425 C 20.272500917917128 2.5706251678057015 20.98687455148081 2.790562631562352 21.462749572938613 2.975343883037567 C 22.092749592310295 3.2200313843786716 22.54190766550479 3.512530904263258 23.014126433647085 3.9850308895111084 C 23.48662643141204 4.457530874758959 23.77912512085496 4.907531015574932 24.024375121451076 5.537531018257141 C 24.209156377821373 6.012843534350395 24.429375097981858 6.727218523621559 24.489281349434737 8.043468475341797 C 24.553968852321855 9.466593459248543 24.568031008198158 9.894093185663223 24.568031008198158 13.49690580368042 C 24.568031008198158 17.099718421697617 24.553968852321855 17.527218148112297 24.489281349434737 18.950343132019043 C 24.429093847404438 20.26659308373928 24.209156377821373 20.98096914589405 24.024375121451076 21.456281661987305 C 23.7796876136279 22.086281664669514 23.48662643141204 22.534875389188528 23.014126433647085 23.007094144821167 C 22.54162643588213 23.479594130069017 22.093030821932956 23.7720931135118 21.462749572938613 24.016780614852905 C 20.987437044253745 24.20240562222898 20.272500917917128 24.42178042558953 18.956250931327812 24.48196792602539 C 17.533125909720738 24.546655427198857 17.105624830876522 24.56071972846985 13.50112473968042 24.56071972846985 C 9.896343284751204 24.56071972846985 9.469125715407372 24.546655427198857 8.046000693800297 24.48196792602539 C 6.729750707210981 24.421217924449593 6.015375061990487 24.20128077082336 5.539218810910022 24.016499519348145 C 4.909218791538338 23.77181201800704 4.459218638801308 23.479313034564257 3.986718641036352 23.006813049316406 C 3.5142186432713967 22.534313064068556 3.2217188809448434 22.085438512265682 2.9764688803487296 21.45515727996826 C 2.791687623978432 20.979844763875008 2.5714689038179475 20.265468701720238 2.511562652365068 18.94921875 C 2.44687514947795 17.526093766093254 2.433937375650476 17.098592966794968 2.433937375650476 13.493530511856079 C 2.433937375650476 9.88846805691719 2.44687514947795 9.463219240307808 2.511562652365068 8.040094256401062 C 2.571750154395368 6.723844304680824 2.791687623978432 6.009468544274569 2.9764688803487296 5.533593535423279 C 3.2211563881719067 4.90359353274107 3.5142186432713967 4.4535933919250965 3.986718641036352 3.981093406677246 C 4.459218638801308 3.5085934214293957 4.909218791538338 3.2160936668515205 5.539218810910022 2.9708436727523804 C 6.015093832367826 2.7852186653763056 6.729750707210981 2.5658440170809627 8.046000693800297 2.5053752660751343 C 9.291375719281625 2.449125265236944 9.774000754597512 2.4322501372662373 12.290063349146074 2.4294376373291016 L 12.290063349146074 2.4328123927116394 Z M 20.707312894066913 4.67437469959259 C 19.812937851598356 4.67437469959259 19.087312250336286 5.399155788123608 19.087312250336286 6.293812036514282 C 19.087312250336286 7.188187055289745 19.812937851598356 7.913812637329102 20.707312894066913 7.913812637329102 C 21.60168793653547 7.913812637329102 22.32731353779754 7.188187055289745 22.32731353779754 6.293812036514282 C 22.32731353779754 5.399437017738819 21.60168793653547 4.673812508583069 20.707312894066913 4.673812508583069 L 20.707312894066913 4.67437469959259 Z M 13.50112473968042 6.567187070846558 C 9.672468411858052 6.567187070846558 6.5683126997518775 9.67134377360344 6.5683126997518775 13.5 C 6.5683126997518775 17.32865622639656 9.672468411858052 20.431405305862427 13.50112473968042 20.431405305862427 C 17.32978106750279 20.431405305862427 20.43281347044377 17.32865622639656 20.43281347044377 13.5 C 20.43281347044377 9.67134377360344 17.32978106750279 6.567187070846558 13.50112473968042 6.567187070846558 Z M 13.50112473968042 9 C 15.986249929968938 9 18.00112485889095 11.014593780040741 18.00112485889095 13.5 C 18.00112485889095 15.985125124454498 15.986249929968938 18 13.50112473968042 18 C 11.015718453879696 18 9.001125693353524 15.985125124454498 9.001125693353524 13.5 C 9.001125693353524 11.014593780040741 11.015718453879696 9 13.50112473968042 9 Z" fill="rgb(233,72,104)"/>
        </svg>