<svg 
          width="23.04541015625" 
          height="28.8067626953125" fill="none" 
          xmlns="http://www.w3.org/2000/svg">
          <path d="M 13.819109026891807 21.963378992412864 C 19.31626522398357 21.963378992412864 23.04541015625 16.847581535076607 23.04541015625 9.999662953897115 C 23.04541015625 4.823066858061556 18.748903459562854 0 12.22069379711329 0 C 4.09651967564618 0 0 5.946205574468432 0 10.904629104827489 C 0 13.907004832942667 1.112665203116761 16.578117186752685 3.5017101517102867 17.573654912393444 C 3.8931037183769805 17.73678393194833 4.243814257278783 17.57891116290405 4.3577767593548495 17.13681137339708 C 4.435712359573367 16.830318873886565 4.624178506074667 16.057205038102897 4.706035411434673 15.735700650031264 C 4.8207330752952355 15.297854193814693 4.776618556762478 15.14448325524385 4.460464689154317 14.76268116645455 C 3.772278606785517 13.93252428705522 3.3330942662391827 12.859926120432807 3.3330942662391827 11.338972667173246 C 3.3330942662391827 6.927982515934379 6.56448075225461 2.9791078898776417 11.75136484723994 2.9791078898776417 C 16.341968003460735 2.9791078898776417 18.866052365410148 5.8426228117567245 18.866052365410148 9.668650172489553 C 18.866052365410148 14.701632530290189 16.68434615490797 18.949496030503635 13.44462681021222 18.949496030503635 C 11.655048881736832 18.949496030503635 10.31715448262284 17.439299024399563 10.74555519372788 15.587333781786668 C 11.258508686551554 13.376083998010559 12.255495059376457 10.98869528394806 12.255495059376457 9.392432117402937 C 12.255495059376457 7.964302102742337 11.504324595033973 6.771608976439111 9.949043585404366 6.771608976439111 C 8.120007692126949 6.771608976439111 6.651239465751136 8.70363656652013 6.651239465751136 11.290433437982475 C 6.651239465751136 12.937987097704527 7.1975248397205 14.052617957065536 7.1975248397205 14.052617957065536 C 7.1975248397205 14.052617957065536 5.3258444538630485 22.147274497079444 4.997191422241182 23.564395785194773 C 4.69917352115859 24.854916866847606 4.654567991586799 26.273289333753308 4.696476770552174 27.47198786031623 C 4.821712852850614 28.54733872940343 5.863305951912719 29.42303233627453 6.766917750413169 28.243348909891285 C 7.402166430383743 27.20677873018573 8.085205487412265 25.89774184924538 8.438611660859479 24.585703706653813 C 8.649380872863112 23.80933938039589 9.641957564651534 19.787659630756348 9.641957564651534 19.787659630756348 C 10.23676798143623 20.944575015821332 11.973162577270662 21.963378992412864 13.819109026891807 21.963378992412864 Z" fill="rgb(202,70,56)"/>
        </svg>