<svg xmlns="http://www.w3.org/2000/svg" data-name="Layer 1" viewBox="0 0 32 32"><circle cx="12.05" cy="12.05" r="8" fill="none" stroke="#000" stroke-linecap="round" stroke-linejoin="round"/><path fill="none" stroke="#000" stroke-linecap="round" stroke-linejoin="round" d="M7.55 16a6 6 0 0 1-1.11-6.1M9.85 17.63a5.27 5.27 0 0 1-.49-.22 4.17 4.17 0 0 1-.46-.26"/><path fill="none" stroke="#000" stroke-linecap="round" stroke-linejoin="round" d="M20.42,3.68l-2.33-.24A10.52,10.52,0,0,0,3.44,18.09l.24,2.33L6,20.65A10.51,10.51,0,0,0,20.65,6Z"/><line x1="27.93" x2="26.99" y1="27.93" y2="26.99" fill="none" stroke="#000" stroke-linecap="round" stroke-linejoin="round"/><path fill="none" stroke="#000" stroke-linecap="round" stroke-linejoin="round" d="M25.41 23.34A12.69 12.69 0 0 1 24 22.12a12.18 12.18 0 0 1-2.6-3.85l-.32-.74a10.7 10.7 0 0 1-3.54 3.54l.74.32A12.18 12.18 0 0 1 22.12 24a12.69 12.69 0 0 1 1.22 1.42l3 4.13a2.27 2.27 0 1 0 3.17-3.17zM4.61 4.61A10.09 10.09 0 0 1 6.71 3L6 2.3a2 2 0 0 0-2.83 0l-.89.89A2 2 0 0 0 2.3 6L3 6.71A10.09 10.09 0 0 1 4.61 4.61z"/></svg>