<svg width="44" height="41" viewBox="0 0 44 41" fill="none" xmlns="http://www.w3.org/2000/svg">
<path d="M11.25 35.1667L11.25 5.83333C11.25 4.36111 11.7749 3.10417 12.8247 2.0625C13.8745 1.02083 15.1413 0.499999 16.625 0.499999L27.375 0.499999C28.8587 0.499999 30.1255 1.02083 31.1753 2.0625C32.2251 3.10417 32.75 4.36111 32.75 5.83333L32.75 35.1667C32.75 36.6389 32.2251 37.8958 31.1753 38.9375C30.1255 39.9792 28.8587 40.5 27.375 40.5L16.625 40.5C15.1413 40.5 13.8745 39.9792 12.8247 38.9375C11.7749 37.8958 11.25 36.6389 11.25 35.1667ZM26.0312 11.1667C26.3952 11.1667 26.7101 11.0347 26.9761 10.7708C27.242 10.5069 27.375 10.1944 27.375 9.83333L27.375 4.5C27.375 4.13889 27.242 3.82639 26.9761 3.5625C26.7101 3.29861 26.3952 3.16667 26.0312 3.16667L17.9687 3.16667C17.6048 3.16667 17.2899 3.29861 17.0239 3.5625C16.758 3.82639 16.625 4.13889 16.625 4.5C16.625 4.86111 16.758 5.17361 17.0239 5.4375C17.2899 5.70139 17.6048 5.83333 17.9687 5.83333L19.3125 5.83333L19.3125 8.5L17.9687 8.5C17.6048 8.5 17.2899 8.63194 17.0239 8.89583C16.758 9.15972 16.625 9.47222 16.625 9.83333C16.625 10.1944 16.758 10.5069 17.0239 10.7708C17.2899 11.0347 17.6048 11.1667 17.9687 11.1667L19.3125 11.1667L19.3125 9.83333C19.3125 9.47222 19.4455 9.15972 19.7114 8.89583C19.9774 8.63194 20.2923 8.5 20.6562 8.5C21.0202 8.5 21.3351 8.63194 21.6011 8.89583C21.867 9.15972 22 9.47222 22 9.83333L22 11.1667L26.0312 11.1667ZM26.0312 21.8333C26.3952 21.8333 26.7101 21.7014 26.9761 21.4375C27.242 21.1736 27.375 20.8611 27.375 20.5L27.375 15.1667C27.375 14.8056 27.242 14.4931 26.9761 14.2292C26.7101 13.9653 26.3952 13.8333 26.0312 13.8333L17.9687 13.8333C17.6048 13.8333 17.2899 13.9653 17.0239 14.2292C16.758 14.4931 16.625 14.8056 16.625 15.1667C16.625 15.5278 16.758 15.8403 17.0239 16.1042C17.2899 16.3681 17.6048 16.5 17.9687 16.5L19.3125 16.5L19.3125 19.1667L17.9687 19.1667C17.6048 19.1667 17.2899 19.2986 17.0239 19.5625C16.758 19.8264 16.625 20.1389 16.625 20.5C16.625 20.8611 16.758 21.1736 17.0239 21.4375C17.2899 21.7014 17.6048 21.8333 17.9687 21.8333L26.0312 21.8333ZM26.0312 37.8333C26.3952 37.8333 26.7101 37.7014 26.9761 37.4375C27.242 37.1736 27.375 36.8611 27.375 36.5L27.375 25.8333C27.375 25.4722 27.242 25.1597 26.9761 24.8958C26.7101 24.6319 26.3952 24.5 26.0312 24.5L17.9687 24.5C17.6048 24.5 17.2899 24.6319 17.0239 24.8958C16.758 25.1597 16.625 25.4722 16.625 25.8333C16.625 26.1944 16.758 26.5069 17.0239 26.7708C17.2899 27.0347 17.6048 27.1667 17.9687 27.1667L24.6875 27.1667L24.6875 29.8333L17.9687 29.8333C17.6048 29.8333 17.2899 29.9653 17.0239 30.2292C16.758 30.4931 16.625 30.8056 16.625 31.1667C16.625 31.5278 16.758 31.8403 17.0239 32.1042C17.2899 32.3681 17.6048 32.5 17.9687 32.5L24.6875 32.5L24.6875 35.1667L17.9687 35.1667C17.6048 35.1667 17.2899 35.2986 17.0239 35.5625C16.758 35.8264 16.625 36.1389 16.625 36.5C16.625 36.8611 16.758 37.1736 17.0239 37.4375C17.2899 37.7014 17.6048 37.8333 17.9687 37.8333L26.0312 37.8333ZM24.6875 16.5L24.6875 19.1667L22 19.1667L22 16.5L24.6875 16.5ZM24.6875 5.83333L24.6875 8.5L22 8.5L22 5.83333L24.6875 5.83333ZM42.1562 32.5C42.5202 32.5 42.8351 32.6319 43.1011 32.8958C43.367 33.1597 43.5 33.4722 43.5 33.8333C43.5 34.1944 43.367 34.5069 43.1011 34.7708C42.8351 35.0347 42.5202 35.1667 42.1562 35.1667L35.4375 35.1667L35.4375 32.5L42.1562 32.5ZM42.1562 27.1667C42.5202 27.1667 42.8351 27.2986 43.1011 27.5625C43.367 27.8264 43.5 28.1389 43.5 28.5C43.5 28.8611 43.367 29.1736 43.1011 29.4375C42.8351 29.7014 42.5202 29.8333 42.1562 29.8333L35.4375 29.8333L35.4375 27.1667L42.1562 27.1667ZM42.1562 21.8333C42.5202 21.8333 42.8351 21.9653 43.1011 22.2292C43.367 22.4931 43.5 22.8056 43.5 23.1667C43.5 23.5278 43.367 23.8403 43.1011 24.1042C42.8351 24.3681 42.5202 24.5 42.1562 24.5L35.4375 24.5L35.4375 21.8333L42.1562 21.8333ZM42.1562 16.5C42.5202 16.5 42.8351 16.6319 43.1011 16.8958C43.367 17.1597 43.5 17.4722 43.5 17.8333C43.5 18.1944 43.367 18.5069 43.1011 18.7708C42.8351 19.0347 42.5202 19.1667 42.1562 19.1667L35.4375 19.1667L35.4375 16.5L42.1562 16.5ZM42.1562 11.1667C42.5202 11.1667 42.8351 11.2986 43.1011 11.5625C43.367 11.8264 43.5 12.1389 43.5 12.5C43.5 12.8611 43.367 13.1736 43.1011 13.4375C42.8351 13.7014 42.5202 13.8333 42.1562 13.8333L35.4375 13.8333L35.4375 11.1667L42.1562 11.1667ZM42.1562 5.83333C42.5202 5.83333 42.8351 5.96528 43.1011 6.22917C43.367 6.49306 43.5 6.80556 43.5 7.16667C43.5 7.52778 43.367 7.84028 43.1011 8.10417C42.8351 8.36806 42.5202 8.5 42.1562 8.5L35.4375 8.5L35.4375 5.83333L42.1562 5.83333ZM1.84375 8.5C1.47982 8.5 1.16487 8.36805 0.898925 8.10417C0.632976 7.84028 0.5 7.52778 0.5 7.16667C0.5 6.80555 0.632976 6.49305 0.898926 6.22917C1.16487 5.96528 1.47982 5.83333 1.84375 5.83333L8.5625 5.83333L8.5625 8.5L1.84375 8.5ZM1.84375 13.8333C1.47982 13.8333 1.16487 13.7014 0.898925 13.4375C0.632976 13.1736 0.499999 12.8611 0.499999 12.5C0.499999 12.1389 0.632976 11.8264 0.898925 11.5625C1.16487 11.2986 1.47982 11.1667 1.84375 11.1667L8.5625 11.1667L8.5625 13.8333L1.84375 13.8333ZM1.84375 19.1667C1.47982 19.1667 1.16487 19.0347 0.898925 18.7708C0.632976 18.5069 0.499999 18.1944 0.499999 17.8333C0.499999 17.4722 0.632976 17.1597 0.898925 16.8958C1.16487 16.6319 1.47982 16.5 1.84375 16.5L8.5625 16.5L8.5625 19.1667L1.84375 19.1667ZM1.84375 24.5C1.47982 24.5 1.16487 24.3681 0.898925 24.1042C0.632976 23.8403 0.499999 23.5278 0.499999 23.1667C0.499999 22.8056 0.632976 22.4931 0.898925 22.2292C1.16487 21.9653 1.47982 21.8333 1.84375 21.8333L8.5625 21.8333L8.5625 24.5L1.84375 24.5ZM1.84375 29.8333C1.47982 29.8333 1.16487 29.7014 0.898925 29.4375C0.632975 29.1736 0.499999 28.8611 0.499999 28.5C0.499999 28.1389 0.632975 27.8264 0.898925 27.5625C1.16487 27.2986 1.47982 27.1667 1.84375 27.1667L8.5625 27.1667L8.5625 29.8333L1.84375 29.8333ZM1.84375 35.1667C1.47981 35.1667 1.16487 35.0347 0.898924 34.7708C0.632975 34.5069 0.499999 34.1944 0.499999 33.8333C0.499999 33.4722 0.632975 33.1597 0.898924 32.8958C1.16487 32.6319 1.47982 32.5 1.84375 32.5L8.5625 32.5L8.5625 35.1667L1.84375 35.1667Z" fill="#FFBD59"/>
</svg>
