<svg width="28" height="50" viewBox="0 0 28 50" fill="none" xmlns="http://www.w3.org/2000/svg">
<path d="M23.3333 0H4.66667C3.82407 0 3.0463 0.211589 2.33333 0.634766C1.62037 1.05794 1.05324 1.6276 0.631944 2.34375C0.210648 3.0599 0 3.84115 0 4.6875V45.3125C0 46.6146 0.453704 47.7214 1.36111 48.6328C2.26852 49.5443 3.37037 50 4.66667 50H23.3333C24.6296 50 25.7315 49.5443 26.6389 48.6328C27.5463 47.7214 28 46.6146 28 45.3125V4.6875C28 3.84115 27.7894 3.0599 27.3681 2.34375C26.9468 1.6276 26.3796 1.05794 25.6667 0.634766C24.9537 0.211589 24.1759 0 23.3333 0ZM24.8889 45.3125C24.8889 45.7357 24.735 46.1019 24.4271 46.4111C24.1192 46.7204 23.7546 46.875 23.3333 46.875H4.66667C4.24537 46.875 3.88079 46.7204 3.57292 46.4111C3.26505 46.1019 3.11111 45.7357 3.11111 45.3125V4.6875C3.11111 4.26432 3.26505 3.89811 3.57292 3.58887C3.88079 3.27962 4.24537 3.125 4.66667 3.125H23.3333C23.7546 3.125 24.1192 3.27962 24.4271 3.58887C24.735 3.89811 24.8889 4.26432 24.8889 4.6875V45.3125ZM14.0243 39.0625C13.1655 39.0625 12.4282 39.3717 11.8125 39.9902C11.1968 40.6087 10.8889 41.3411 10.8889 42.1875C10.8889 42.7409 11.0266 43.2617 11.3021 43.75C11.5775 44.2383 11.9583 44.6208 12.4444 44.8975C12.9306 45.1742 13.4491 45.3125 14 45.3125C14.5509 45.3125 15.0694 45.1742 15.5556 44.8975C16.0417 44.6208 16.4225 44.2383 16.6979 43.75C16.9734 43.2617 17.1111 42.7409 17.1111 42.1875C17.1111 41.3411 16.8113 40.6087 16.2118 39.9902C15.6123 39.3717 14.8831 39.0625 14.0243 39.0625ZM17.1111 4.6875H10.8889C10.4676 4.6875 10.103 4.84212 9.79514 5.15137C9.48727 5.46061 9.33333 5.82682 9.33333 6.25C9.33333 6.67318 9.48727 7.03939 9.79514 7.34863C10.103 7.65788 10.4676 7.8125 10.8889 7.8125H17.1111C17.5324 7.8125 17.897 7.65788 18.2049 7.34863C18.5127 7.03939 18.6667 6.67318 18.6667 6.25C18.6667 5.82682 18.5127 5.46061 18.2049 5.15137C17.897 4.84212 17.5324 4.6875 17.1111 4.6875Z" fill="#FFBD59"/>
</svg>
