<svg width="26" height="142" viewBox="0 0 26 142" fill="none" xmlns="http://www.w3.org/2000/svg">
<line x1="13.5" y1="2.63643e-08" x2="13.5" y2="142" stroke="#FFBD59"/>
<path d="M26 76.3333C26 78.9 24.05 81 21.6667 81H4.33333C1.95 81 0 78.9 0 76.3333V57.6667C0 55.1 1.95 53 4.33333 53H21.6667C24.05 53 26 55.1 26 57.6667V76.3333Z" fill="#EDA454"/>
<path d="M10.6312 61.845H12.9938L9.31875 73.601H7.175L3.5 61.845H5.90625L8.26875 70.7815L10.6312 61.845" fill="white"/>
<path d="M15.925 70.0169C16.0125 70.5426 16.1437 70.9727 16.3187 71.2116C16.7125 71.6895 17.325 71.9284 18.2438 71.9284C18.7688 71.9284 19.25 71.8807 19.5562 71.7373C20.2125 71.4983 20.5188 71.0205 20.5188 70.3514C20.5188 69.9691 20.3437 69.6824 20.0375 69.4434C19.7312 69.2523 19.2063 69.0611 18.55 68.87L17.3688 68.5832C16.2313 68.2965 15.4437 68.0098 15.0062 67.6753C14.2625 67.1496 13.9125 66.2894 13.9125 65.1425C13.9125 64.0911 14.2625 63.2309 14.9625 62.5141C15.6625 61.7973 16.7125 61.4628 18.1125 61.4628C19.25 61.4628 20.2562 61.7973 21.0437 62.4663C21.875 63.1354 22.2687 64.0911 22.3125 65.3336H20.125C20.0812 64.6168 19.775 64.1389 19.25 63.8044C18.9 63.6132 18.4625 63.5177 17.8938 63.5177C17.2813 63.5177 16.8 63.661 16.45 63.9C16.1 64.1389 15.925 64.5212 15.925 64.9513C15.925 65.3814 16.1 65.6682 16.45 65.9071C16.6687 66.0505 17.15 66.1938 17.8938 66.385L19.775 66.8629C20.6062 67.054 21.2187 67.3407 21.6562 67.7231C22.3125 68.2965 22.6187 69.0611 22.6187 70.1125C22.6187 71.2116 22.225 72.0718 21.4812 72.7886C20.825 73.601 19.775 73.9356 18.375 73.9356C16.9312 73.9356 15.8375 73.601 15.0062 72.8842C14.175 72.1674 13.7812 71.2116 13.7812 70.0169H15.925" fill="white"/>
</svg>
